<?xml version="1.0" encoding="UTF-8" standalone="no"?>
<!-- Generator: Adobe Illustrator 15.1.0, SVG Export Plug-In . SVG Version: 6.00 Build 0)  -->

<svg
   xmlns:dc="http://purl.org/dc/elements/1.1/"
   xmlns:cc="http://creativecommons.org/ns#"
   xmlns:rdf="http://www.w3.org/1999/02/22-rdf-syntax-ns#"
   xmlns:svg="http://www.w3.org/2000/svg"
   xmlns="http://www.w3.org/2000/svg"
   xmlns:sodipodi="http://sodipodi.sourceforge.net/DTD/sodipodi-0.dtd"
   xmlns:inkscape="http://www.inkscape.org/namespaces/inkscape"
   version="1.1"
   id="Layer_1"
   x="0px"
   y="0px"
   width="512px"
   height="512px"
   viewBox="0 0 512 512"
   enable-background="new 0 0 512 512"
   xml:space="preserve"
   inkscape:version="0.91 r13725"
   sodipodi:docname="03d.svg"><metadata
     id="metadata388"><rdf:RDF><cc:Work
         rdf:about=""><dc:format>image/svg+xml</dc:format><dc:type
           rdf:resource="http://purl.org/dc/dcmitype/StillImage" /></cc:Work></rdf:RDF></metadata><defs
     id="defs386" /><sodipodi:namedview
     pagecolor="#ffffff"
     bordercolor="#666666"
     borderopacity="1"
     objecttolerance="10"
     gridtolerance="10"
     guidetolerance="10"
     inkscape:pageopacity="0"
     inkscape:pageshadow="2"
     inkscape:window-width="640"
     inkscape:window-height="480"
     id="namedview384"
     showgrid="false"
     inkscape:zoom="0.4609375"
     inkscape:cx="256"
     inkscape:cy="256"
     inkscape:window-x="0"
     inkscape:window-y="0"
     inkscape:window-maximized="0"
     inkscape:current-layer="Layer_1" /><path
     d="m 400,64.542373 c -5.312,0 -10.562,0.375 -15.792,1.125 C 354.334,24.959373 307.188,0.54237288 256,0.54237288 c -51.188,0 -98.312,24.41700012 -128.208,65.12500012 -5.23,-0.75 -10.48,-1.125 -15.792,-1.125 -61.75,0 -112,50.249997 -112,111.999997 0,61.75 50.25,112 112,112 13.688,0 27.084,-2.5 39.709,-7.333 28.957,25.25 65.791,39.333 104.291,39.333 38.542,0 75.333,-14.083 104.291,-39.333 12.625,4.833 26.021,7.333 39.709,7.333 61.75,0 112,-50.25 112,-112 0,-61.75 -50.25,-111.999997 -112,-111.999997 z m 0,191.999997 c -17.125,0 -32.916,-5.5 -45.938,-14.667 -23.478,28.291 -58.438,46.667 -98.062,46.667 -39.625,0 -74.584,-18.376 -98.062,-46.667 -13,9.167 -28.813,14.667 -45.938,14.667 -44.188,0 -80,-35.812 -80,-80 0,-44.188 35.812,-79.999997 80,-79.999997 10.812,0 21.062,2.208 30.438,6.082997 C 163.667,61.209373 206.291,32.542373 256,32.542373 c 49.709,0 92.334,28.667 113.541,70.082997 9.397,-3.874997 19.668,-6.082997 30.459,-6.082997 44.188,0 80,35.811997 80,79.999997 0,44.188 -35.812,80 -80,80 z"
     id="path382"
     inkscape:connector-curvature="0"
     style="clip-rule:evenodd;fill:#1d1d1b;fill-rule:evenodd" /></svg>